<svg width="40" height="40" viewBox="0 0 40 40" fill="none" xmlns="http://www.w3.org/2000/svg">
<path d="M19.9999 12.3636C17.9746 12.3636 16.0323 13.1681 14.6002 14.6002C13.1681 16.0323 12.3636 17.9746 12.3636 19.9999H6C6 12.2681 12.2681 6 19.9999 6C27.7317 6 33.9998 12.2681 33.9998 19.9999C33.9998 27.7317 27.7317 33.9998 19.9999 33.9998V27.6362C22.0252 27.6362 23.9675 26.8317 25.3996 25.3996C26.8317 23.9675 27.6362 22.0252 27.6362 19.9999C27.6362 17.9746 26.8317 16.0323 25.3996 14.6002C23.9675 13.1681 22.0252 12.3636 19.9999 12.3636Z" fill="white"/>
<path d="M13.6367 27.6365V21.2729H20.0003V27.6365H13.6367Z" fill="white"/>
<path d="M8.54541 27.6362V32.7271H13.6363V27.6362H8.54541Z" fill="white"/>
<path d="M8.54544 27.6363H6V25.0908H8.54544V27.6363Z" fill="white"/>
</svg>
