<svg width="40" height="40" viewBox="0 0 40 40" fill="none" xmlns="http://www.w3.org/2000/svg">
<g clip-path="url(#clip0)">
<path d="M25.7832 18.8217C25.6284 18.6668 25.4447 18.544 25.2425 18.4601C25.0403 18.3763 24.8235 18.3331 24.6046 18.333C24.3857 18.3329 24.1689 18.376 23.9666 18.4597C23.7643 18.5434 23.5805 18.6661 23.4257 18.8208C23.2708 18.9756 23.148 19.1593 23.0641 19.3615C22.9803 19.5638 22.9371 19.7805 22.937 19.9994C22.9369 20.2183 22.98 20.4351 23.0637 20.6374C23.1474 20.8397 23.2701 21.0235 23.4248 21.1783C23.7374 21.4911 24.1613 21.6669 24.6034 21.667C25.0455 21.6672 25.4696 21.4917 25.7823 21.1792C26.0951 20.8667 26.2709 20.4427 26.271 20.0006C26.2712 19.5585 26.0957 19.1344 25.7832 18.8217Z" fill="white"/>
<path d="M26.9615 15.2866C27.1152 15.1275 27.2992 15.0005 27.5025 14.9131C27.7058 14.8258 27.9245 14.7798 28.1458 14.7779C28.3671 14.776 28.5866 14.8181 28.7914 14.9019C28.9963 14.9857 29.1823 15.1095 29.3388 15.266C29.4953 15.4225 29.6191 15.6086 29.7029 15.8134C29.7867 16.0182 29.8288 16.2377 29.8269 16.459C29.825 16.6803 29.779 16.899 29.6917 17.1023C29.6043 17.3057 29.4774 17.4896 29.3182 17.6433C29.0038 17.9469 28.5828 18.1149 28.1458 18.1111C27.7088 18.1073 27.2908 17.932 26.9818 17.623C26.6728 17.314 26.4975 16.896 26.4937 16.459C26.4899 16.022 26.6579 15.601 26.9615 15.2866Z" fill="white"/>
<path d="M32.8533 18.8218C32.6995 18.6626 32.5156 18.5356 32.3123 18.4483C32.1089 18.361 31.8902 18.315 31.6689 18.3131C31.4476 18.3111 31.2282 18.3533 31.0233 18.4371C30.8185 18.5209 30.6324 18.6447 30.4759 18.8011C30.3195 18.9576 30.1957 19.1437 30.1119 19.3485C30.0281 19.5534 29.9859 19.7728 29.9879 19.9941C29.9898 20.2154 30.0358 20.4341 30.1231 20.6375C30.2105 20.8408 30.3374 21.0247 30.4966 21.1785C30.8109 21.4821 31.2319 21.6501 31.6689 21.6463C32.1059 21.6425 32.524 21.4672 32.833 21.1582C33.142 20.8492 33.3173 20.4311 33.3211 19.9941C33.3249 19.5571 33.1569 19.1361 32.8533 18.8218Z" fill="white"/>
<path d="M26.9618 22.357C27.1167 22.2022 27.3005 22.0795 27.5028 21.9958C27.705 21.9121 27.9218 21.8691 28.1407 21.8691C28.3597 21.8692 28.5764 21.9124 28.7786 21.9963C28.9808 22.0801 29.1646 22.203 29.3193 22.3578C29.4741 22.5127 29.5968 22.6965 29.6805 22.8988C29.7642 23.101 29.8072 23.3178 29.8072 23.5367C29.8071 23.7556 29.7639 23.9724 29.68 24.1746C29.5962 24.3768 29.4733 24.5606 29.3185 24.7153C29.0057 25.0278 28.5817 25.2033 28.1396 25.2031C27.6974 25.203 27.2735 25.0272 26.961 24.7145C26.6485 24.4017 26.473 23.9777 26.4731 23.5356C26.4733 23.0934 26.6491 22.6695 26.9618 22.357Z" fill="white"/>
<path d="M9.99984 21.6667H6.6665V18.3333H9.99984V15H13.3332V18.3333H16.6665V21.6667H13.3332V25H9.99984V21.6667Z" fill="white"/>
<path fill-rule="evenodd" clip-rule="evenodd" d="M11.6667 8.3335C8.57247 8.3335 5.60501 9.56266 3.41709 11.7506C1.22916 13.9385 0 16.906 0 20.0002C0 23.0944 1.22916 26.0618 3.41709 28.2497C5.60501 30.4377 8.57247 31.6668 11.6667 31.6668H28.3333C29.8654 31.6668 31.3825 31.3651 32.798 30.7788C34.2134 30.1925 35.4996 29.3331 36.5829 28.2497C37.6663 27.1664 38.5256 25.8803 39.1119 24.4648C39.6982 23.0493 40 21.5323 40 20.0002C40 18.4681 39.6982 16.951 39.1119 15.5355C38.5256 14.1201 37.6663 12.8339 36.5829 11.7506C35.4996 10.6672 34.2134 9.80787 32.798 9.22157C31.3825 8.63526 29.8654 8.3335 28.3333 8.3335H11.6667ZM28.3333 11.6668H11.6667C9.45653 11.6668 7.33691 12.5448 5.77411 14.1076C4.21131 15.6704 3.33333 17.79 3.33333 20.0002C3.33333 22.2103 4.21131 24.3299 5.77411 25.8927C7.33691 27.4555 9.45653 28.3335 11.6667 28.3335H28.3333C30.5435 28.3335 32.6631 27.4555 34.2259 25.8927C35.7887 24.3299 36.6667 22.2103 36.6667 20.0002C36.6667 17.79 35.7887 15.6704 34.2259 14.1076C32.6631 12.5448 30.5435 11.6668 28.3333 11.6668Z" fill="white"/>
</g>
<defs>
<clipPath id="clip0">
<rect width="40" height="40" fill="white"/>
</clipPath>
</defs>
</svg>
