<svg width="40" height="40" viewBox="0 0 40 40" fill="none" xmlns="http://www.w3.org/2000/svg">
<path fill-rule="evenodd" clip-rule="evenodd" d="M11.6668 13.3332V21.6665C11.6668 23.8766 12.5448 25.9963 14.1076 27.5591C15.6704 29.1219 17.79 29.9998 20.0002 29.9998C22.2103 29.9998 24.3299 29.1219 25.8927 27.5591C27.4555 25.9963 28.3335 23.8766 28.3335 21.6665V13.3332H11.6668ZM8.3335 6.6665H31.6668V21.6665C31.6668 23.1986 31.3651 24.7157 30.7788 26.1311C30.1925 27.5466 29.3331 28.8327 28.2497 29.9161C27.1664 30.9994 25.8803 31.8588 24.4648 32.4451C23.0493 33.0314 21.5323 33.3332 20.0002 33.3332C18.4681 33.3332 16.951 33.0314 15.5355 32.4451C14.1201 31.8588 12.8339 30.9994 11.7506 29.9161C10.6672 28.8327 9.80787 27.5466 9.22157 26.1311C8.63526 24.7157 8.3335 23.1986 8.3335 21.6665V6.6665Z" fill="white"/>
</svg>
